<?xml version="1.0" standalone="no"?>
<svg xmlns:xlink="http://www.w3.org/1999/xlink" id="wave" style="transform:rotate(0deg); transition: 0.3s" viewBox="0 0 1440 100" version="1.1" xmlns="http://www.w3.org/2000/svg"><defs><linearGradient id="sw-gradient-0" x1="0" x2="0" y1="1" y2="0"><stop stop-color="rgba(99, 102, 241, 1)" offset="0%"/><stop stop-color="rgba(99, 102, 241, 1)" offset="100%"/></linearGradient></defs><path style="transform:translate(0, 0px); opacity:1" fill="url(#sw-gradient-0)" d="M0,0L10,13.3C20,27,40,53,60,53.3C80,53,100,27,120,15C140,3,160,7,180,11.7C200,17,220,23,240,30C260,37,280,43,300,51.7C320,60,340,70,360,75C380,80,400,80,420,75C440,70,460,60,480,58.3C500,57,520,63,540,66.7C560,70,580,70,600,68.3C620,67,640,63,660,61.7C680,60,700,60,720,51.7C740,43,760,27,780,28.3C800,30,820,50,840,58.3C860,67,880,63,900,65C920,67,940,73,960,63.3C980,53,1000,27,1020,25C1040,23,1060,47,1080,48.3C1100,50,1120,30,1140,33.3C1160,37,1180,63,1200,66.7C1220,70,1240,50,1260,40C1280,30,1300,30,1320,33.3C1340,37,1360,43,1380,48.3C1400,53,1420,57,1430,58.3L1440,60L1440,100L1430,100C1420,100,1400,100,1380,100C1360,100,1340,100,1320,100C1300,100,1280,100,1260,100C1240,100,1220,100,1200,100C1180,100,1160,100,1140,100C1120,100,1100,100,1080,100C1060,100,1040,100,1020,100C1000,100,980,100,960,100C940,100,920,100,900,100C880,100,860,100,840,100C820,100,800,100,780,100C760,100,740,100,720,100C700,100,680,100,660,100C640,100,620,100,600,100C580,100,560,100,540,100C520,100,500,100,480,100C460,100,440,100,420,100C400,100,380,100,360,100C340,100,320,100,300,100C280,100,260,100,240,100C220,100,200,100,180,100C160,100,140,100,120,100C100,100,80,100,60,100C40,100,20,100,10,100L0,100Z"/></svg>